<svg width="20" height="21" viewBox="0 0 20 21" fill="none" xmlns="http://www.w3.org/2000/svg">
<path d="M8.64645 12.5535L8.66248 12.5696L8.67991 12.5841C9.32086 13.1182 10.0601 13.54 10.791 13.8544C10.9387 13.926 11.1392 13.9887 11.3582 13.9574C11.5879 13.9246 11.7799 13.7962 11.9036 13.6009C12.0214 13.4717 12.1631 13.2826 12.2809 13.1255C12.2873 13.1169 12.2937 13.1084 12.3 13.1C12.4619 12.8842 12.5854 12.7217 12.6536 12.6535C12.6581 12.649 12.6621 12.6452 12.6656 12.6421C12.6689 12.6435 12.6724 12.6452 12.6764 12.6472C12.7825 12.7002 13.156 12.8745 13.5195 13.0442L13.5386 13.0531C13.9191 13.2307 14.2843 13.4012 14.3764 13.4472L14.5557 13.5369C14.5824 13.756 14.5569 13.9549 14.4657 14.1498C14.1135 14.6659 13.6306 15.0334 13.1293 15.105L13.1293 15.1049L13.1178 15.1068C12.5626 15.1993 12.1663 15.188 11.7857 15.0357L11.7431 15.0187L11.6981 15.0097C11.3652 14.9431 11.0972 14.831 10.7508 14.686C10.6428 14.6409 10.5273 14.5925 10.3998 14.5414C8.80053 13.7855 7.46902 12.5542 6.41202 11.0167L6.40618 11.0082L6.4 11C5.86824 10.291 5.59501 9.48967 5.50014 8.67287C5.50667 8.02546 5.74805 7.45903 6.25355 6.95353C6.25227 6.95482 6.25565 6.95137 6.26516 6.9435C6.27413 6.93607 6.2862 6.92665 6.30107 6.91588C6.33119 6.89407 6.36752 6.87056 6.40532 6.84955C6.44388 6.82813 6.47709 6.81316 6.50168 6.80452C6.50787 6.80234 6.51257 6.8009 6.51585 6.79998H6.5164H6.51758H6.51875H6.51992H6.52109H6.52226H6.52343H6.5246H6.52577H6.52694H6.52811H6.52929H6.53046H6.53163H6.5328H6.53397H6.53514H6.53631H6.53748H6.53865H6.53981H6.54098H6.54215H6.54332H6.54449H6.54566H6.54683H6.548H6.54916H6.55033H6.5515H6.55267H6.55383H6.555H6.55617H6.55733H6.5585H6.55967H6.56083H6.562H6.56316H6.56433H6.56549H6.56666H6.56782H6.56899H6.57015H6.57132H6.57248H6.57364H6.5748H6.57597H6.57713H6.57829H6.57945H6.58061H6.58178H6.58294H6.5841H6.58526H6.58642H6.58758H6.58874H6.58989H6.59105H6.59221H6.59337H6.59453H6.59568H6.59684H6.598H6.59915H6.60031H6.60146H6.60262H6.60377H6.60493H6.60608H6.60723H6.60839H6.60954H6.61069H6.61184H6.61299H6.61414H6.61529H6.61644H6.61759H6.61874H6.61989H6.62104H6.62218H6.62333H6.62448H6.62562H6.62677H6.62791H6.62906H6.6302H6.63135H6.63249H6.63363H6.63477H6.63592H6.63706H6.6382H6.63934H6.64048H6.64162H6.64275H6.64389H6.64503H6.64617H6.6473H6.64844H6.64957H6.65071H6.65184H6.65297H6.65411H6.65524H6.65637H6.6575H6.65863H6.65976H6.66089H6.66202H6.66315H6.66427H6.6654H6.66653H6.66765H6.66878H6.6699H6.67102H6.67214H6.67327H6.67439H6.67551H6.67663H6.67775H6.67887H6.67998H6.6811H6.68222H6.68333H6.68445H6.68556H6.68668H6.68779H6.6889H6.69001H6.69112H6.69223H6.69334H6.69445H6.69556H6.69667H6.69777H6.69888H6.69998H6.70109H6.70219H6.70329H6.70439H6.70549H6.70659H6.70769H6.70879H6.70989H6.71098H6.71208H6.71317H6.71427H6.71536H6.71645H6.71755H6.71864H6.71973H6.72082H6.7219H6.72299H6.72408H6.72516H6.72625H6.72733H6.72841H6.7295H6.73058H6.73166H6.73274H6.73382H6.73489H6.73597H6.73705H6.73812H6.73919H6.74027H6.74134H6.74241H6.74348H6.74455H6.74562H6.74668H6.74775H6.74882H6.74988H6.75094H6.752H6.75307H6.75413H6.75519H6.75624H6.7573H6.75836H6.75941H6.76047H6.76152H6.76257H6.76362H6.76467H6.76572H6.76677H6.76782H6.76886H6.76991H6.77095H6.77199H6.77303H6.77408H6.77511H6.77615H6.77719H6.77823H6.77926H6.78029H6.78133H6.78236H6.78339H6.78442H6.78545H6.78647H6.7875H6.78852H6.78955H6.79057H6.79159H6.79261H6.79363H6.79465H6.79567H6.79668H6.7977H6.79871H6.79972H6.80073H6.80174H6.80275H6.80376H6.80476H6.80577H6.80677H6.80777H6.80877H6.80977H6.81077H6.81177H6.81277H6.81376H6.81475H6.81575H6.81674H6.81773H6.81872H6.8197H6.82069H6.82167H6.82266H6.82364H6.82462H6.8256H6.82658H6.82755H6.82853H6.8295H6.83047H6.83145H6.83242H6.83338H6.83435H6.83532H6.83628H6.83725H6.83821H6.83917H6.84013H6.84109H6.84204H6.843H6.84395H6.8449H6.84585H6.8468H6.84775H6.8487H6.84964H6.85059H6.85153H6.85247H6.85341H6.85435H6.85528H6.85622H6.85715H6.85808H6.85901H6.85994H6.86087H6.8618H6.86272H6.86365H6.86457H6.86549H6.86641H6.86732H6.86824H6.86915H6.87007H6.87098H6.87189H6.8728H6.8737H6.87461H6.87551H6.87641H6.87731H6.87821H6.87911H6.88H6.8809H6.88179H6.88268H6.88357H6.88446H6.88535H6.88623H6.88711H6.88799H6.88887H6.88975H6.89063H6.8915H6.89238H6.89325H6.89412H6.89499H6.89585H6.89672H6.89758H6.89844H6.8993H6.90016H6.90102H6.90187H6.90273H6.90358H6.90443H6.90528H6.90612H6.90697H6.90781H6.90865H6.90949H6.91033H6.91117H6.912H6.91284H6.91367H6.9145H6.91532H6.91615H6.91697H6.9178H6.91862H6.91943H6.92025H6.92107H6.92188H6.92269H6.9235H6.92431H6.92512H6.92592H6.92672H6.92752H6.92832H6.92912H6.92991H6.93071H6.9315H6.93229H6.93308H6.93386H6.93465H6.93543H6.93621H6.93699H6.93776H6.93854H6.93931H6.94008H6.94085H6.94162H6.94238H6.94315H6.94391H6.94467H6.94543H6.94618H6.94694H6.94769H6.94844H6.94919H6.94925C6.96687 6.85707 6.98686 6.9435 7.00503 7.07069L7.0135 7.13002L7.03576 7.18567C7.13723 7.43935 7.31405 7.86878 7.47872 8.24878C7.56084 8.43829 7.64173 8.61964 7.7096 8.76202C7.74328 8.83266 7.77622 8.8989 7.80609 8.95372C7.8099 8.9607 7.81383 8.96781 7.81786 8.975L7.8 8.99287V9.15549C7.79752 9.1613 7.79431 9.16832 7.79029 9.17637C7.78365 9.18964 7.77628 9.20272 7.76887 9.21457C7.63737 9.30053 7.54322 9.40209 7.47839 9.47988C7.44652 9.51812 7.41571 9.5583 7.39406 9.58653C7.38918 9.59289 7.38477 9.59864 7.38092 9.60363C7.35479 9.63744 7.34682 9.64602 7.34646 9.64641L7.34645 9.64642C7.1679 9.82497 6.917 10.252 7.15279 10.7236L7.16671 10.7514L7.18398 10.7773C7.6036 11.4068 8.12497 12.0321 8.64645 12.5535ZM1.88216 16.0323L1.93669 15.8337L1.83549 15.6543C-0.256898 11.9451 0.316061 7.29102 3.35355 4.25353C7.0567 0.550378 13.0366 0.548792 16.7417 4.24877C18.4616 6.0665 19.4943 8.43808 19.4004 10.8808L19.4 10.8904V10.9C19.4 16.1238 15.2239 20.3 10 20.3C8.48462 20.3 6.96516 19.9214 5.53529 19.1588L5.36209 19.0664L5.1723 19.1166L0.712095 20.2947L1.88216 16.0323ZM5.52265 18.516L5.54223 18.5291L5.56295 18.5402C6.92662 19.2745 8.40742 19.7 10 19.7C11.7061 19.7 13.2956 19.1667 14.662 18.3258C18.8077 15.7746 19.964 10.3625 17.4258 6.23793L17.4259 6.23791L17.4227 6.23298C14.8828 2.2114 9.57649 0.821135 5.43017 3.47904C1.30406 6.12398 0.0312217 11.4238 2.57125 15.6572L2.57737 15.6674L2.58397 15.6773L2.65868 15.7894L1.91688 18.5711L1.69641 19.3979L2.52494 19.1841L5.40857 18.4399L5.52265 18.516Z" fill="white" stroke="white"/>
</svg>