<svg width="160" height="54" viewBox="0 0 160 54" fill="none" xmlns="http://www.w3.org/2000/svg">
<rect width="160" height="54" rx="27" fill="#222222"/>
<path fill-rule="evenodd" clip-rule="evenodd" d="M41.4125 16.565C42.9985 14.676 42.6675 12.714 42.6675 12.714C42.6675 12.714 40.4475 12.724 38.8525 14.811C37.4325 16.666 37.7945 18.253 37.7945 18.253C37.7945 18.253 39.7195 18.583 41.4105 16.565H41.4125ZM44.4575 25.484C44.4575 22.25 47.0855 20.918 47.0855 20.918C47.0855 20.918 45.7405 18.508 42.3275 18.508C40.3435 18.508 38.8195 19.628 37.9985 19.628C37.0425 19.628 35.6155 18.575 33.7755 18.575C30.9455 18.575 27.9275 21.089 27.9275 25.882C27.9275 30.752 31.4915 36.811 34.3145 36.811C35.2985 36.811 36.8115 35.826 38.3345 35.826C39.8305 35.826 40.9325 36.776 42.3535 36.776C45.4435 36.776 47.7315 30.388 47.7315 30.388C47.7315 30.388 44.4595 29.131 44.4595 25.484H44.4575ZM66.9655 33.601H64.8085L63.6265 29.916H59.5165L58.3905 33.601H56.2895L60.3595 21.056H62.8755L66.9655 33.601ZM63.2695 28.369L62.2005 25.095C62.0885 24.76 61.8765 23.973 61.5625 22.732H61.5255C61.3363 23.5224 61.1363 24.3101 60.9255 25.095L59.8755 28.369H63.2695ZM77.4355 28.967C77.4355 30.506 77.0165 31.721 76.1785 32.613C75.4275 33.408 74.4965 33.805 73.3825 33.805C72.1815 33.805 71.3195 33.377 70.7935 32.521H70.7555V37.286H68.7295V27.533C68.7295 26.566 68.7045 25.573 68.6545 24.556H70.4355L70.5485 25.989H70.5885C71.2635 24.909 72.2885 24.371 73.6655 24.371C74.7395 24.371 75.6375 24.791 76.3555 25.635C77.0765 26.481 77.4355 27.592 77.4355 28.968V28.967ZM75.3715 29.04C75.3715 28.16 75.1715 27.435 74.7715 26.863C74.3345 26.267 73.7455 25.97 73.0095 25.97C72.5075 25.97 72.0535 26.136 71.6485 26.463C71.2423 26.7903 70.9606 27.2471 70.8505 27.757C70.7885 28.007 70.7575 28.209 70.7575 28.371V29.878C70.7575 30.538 70.9615 31.093 71.3675 31.545C71.7755 31.998 72.3035 32.225 72.9535 32.225C73.7165 32.225 74.3105 31.933 74.7355 31.351C75.1595 30.767 75.3735 29.997 75.3735 29.041L75.3715 29.04ZM87.9235 28.967C87.9235 30.506 87.5045 31.721 86.6655 32.613C85.9155 33.408 84.9835 33.805 83.8715 33.805C82.6695 33.805 81.8075 33.377 81.2825 32.521H81.2445V37.286H79.2175V27.533C79.2175 26.566 79.1925 25.573 79.1425 24.556H80.9245L81.0375 25.989H81.0745C81.7495 24.909 82.7745 24.371 84.1525 24.371C85.2265 24.371 86.1245 24.791 86.8455 25.635C87.5625 26.481 87.9225 27.592 87.9225 28.968L87.9235 28.967ZM85.8605 29.04C85.8605 28.16 85.6605 27.435 85.2595 26.863C84.8215 26.267 84.2355 25.97 83.4975 25.97C82.9997 25.9693 82.5175 26.1438 82.1355 26.463C81.7293 26.7903 81.4476 27.2471 81.3375 27.757C81.2832 27.9575 81.252 28.1635 81.2445 28.371V29.878C81.2445 30.538 81.4475 31.093 81.8515 31.545C82.2585 31.998 82.7875 32.225 83.4385 32.225C84.2035 32.225 84.7965 31.933 85.2215 31.351C85.6465 30.767 85.8615 29.997 85.8615 29.041L85.8605 29.04ZM99.6505 30.084C99.6505 31.151 99.2755 32.018 98.5275 32.689C97.7035 33.421 96.5565 33.789 95.0825 33.789C93.7205 33.789 92.6305 33.527 91.8045 33.005L92.2745 31.33C93.1645 31.864 94.1395 32.13 95.2025 32.13C95.9655 32.13 96.5595 31.96 96.9865 31.618C97.4105 31.277 97.6235 30.818 97.6235 30.248C97.6235 29.738 97.4485 29.31 97.0975 28.962C96.7485 28.614 96.1675 28.291 95.3525 27.992C93.1385 27.172 92.0325 25.972 92.0325 24.394C92.0325 23.364 92.4205 22.517 93.1965 21.859C93.9705 21.2 95.0025 20.871 96.2925 20.871C97.4445 20.871 98.4005 21.071 99.1625 21.467L98.6555 23.105C97.9445 22.721 97.1375 22.528 96.2365 22.528C95.5235 22.528 94.9675 22.703 94.5675 23.049C94.2305 23.359 94.0605 23.737 94.0605 24.185C94.0605 24.681 94.2535 25.091 94.6405 25.415C94.9795 25.711 95.5915 26.034 96.4805 26.381C97.5685 26.816 98.3685 27.324 98.8815 27.906C99.3955 28.488 99.6515 29.214 99.6515 30.081L99.6505 30.084ZM106.35 26.064H104.116V30.455C104.116 31.573 104.509 32.131 105.296 32.131C105.659 32.131 105.959 32.098 106.197 32.037L106.254 33.563C105.854 33.711 105.329 33.786 104.678 33.786C103.878 33.786 103.251 33.543 102.801 33.06C102.351 32.575 102.125 31.764 102.125 30.622V26.062H100.793V24.554H102.123V22.897L104.114 22.302V24.554H106.348V26.064H106.35ZM116.424 29.004C116.424 30.394 116.024 31.534 115.223 32.428C114.383 33.348 113.269 33.806 111.881 33.806C110.545 33.806 109.479 33.364 108.684 32.484C107.889 31.603 107.491 30.493 107.491 29.153C107.491 27.752 107.901 26.603 108.72 25.711C109.539 24.818 110.644 24.371 112.03 24.371C113.37 24.371 114.446 24.812 115.259 25.693C116.035 26.548 116.422 27.652 116.422 29.004H116.424ZM114.323 29.069C114.323 28.236 114.143 27.519 113.779 26.922C113.355 26.2 112.747 25.84 111.96 25.84C111.146 25.84 110.527 26.202 110.102 26.922C109.738 27.521 109.559 28.247 109.559 29.105C109.559 29.94 109.74 30.655 110.103 31.251C110.541 31.972 111.153 32.332 111.943 32.332C112.716 32.332 113.323 31.965 113.762 31.231C114.136 30.624 114.323 29.902 114.323 29.069ZM123.01 26.323C122.8 26.2852 122.586 26.2665 122.372 26.267C121.659 26.267 121.108 26.533 120.72 27.069C120.382 27.539 120.213 28.136 120.213 28.855V33.6H118.188L118.208 27.403C118.211 26.4534 118.185 25.504 118.131 24.556H119.895L119.97 26.286H120.026C120.219 25.7206 120.571 25.223 121.04 24.853C121.463 24.5384 121.976 24.3683 122.503 24.368C122.691 24.368 122.86 24.382 123.01 24.405V26.323ZM132.07 28.651C132.07 29.011 132.046 29.314 131.996 29.562H125.918C125.943 30.455 126.236 31.139 126.801 31.611C127.313 32.031 127.975 32.243 128.787 32.243C129.688 32.243 130.51 32.1 131.247 31.815L131.564 33.21C130.702 33.584 129.684 33.77 128.508 33.77C127.095 33.77 125.984 33.357 125.176 32.532C124.37 31.708 123.966 30.6 123.966 29.21C123.966 27.846 124.341 26.71 125.093 25.804C125.88 24.837 126.943 24.354 128.282 24.354C129.595 24.354 130.592 24.837 131.266 25.804C131.803 26.572 132.072 27.522 132.072 28.65L132.07 28.651ZM130.139 28.129C130.15 27.533 130.019 27.019 129.745 26.585C129.395 26.025 128.855 25.747 128.13 25.747C127.468 25.747 126.929 26.019 126.517 26.566C126.18 27.001 125.979 27.521 125.917 28.129H130.139Z" fill="white"/>
</svg>
