<svg width="160" height="54" viewBox="0 0 160 54" fill="none" xmlns="http://www.w3.org/2000/svg">
<rect width="160" height="54" rx="27" fill="#222222"/>
<path fill-rule="evenodd" clip-rule="evenodd" d="M80.2209 24.6796C78.0049 24.6796 76.1429 26.3576 76.1429 28.7436C76.1429 31.0416 78.0049 32.8086 80.2209 32.8086C82.4379 32.8086 84.2999 31.1296 84.2999 28.7436C84.2999 26.3576 82.5269 24.6786 80.2209 24.6786V24.6796ZM80.2209 31.1296C78.9799 31.1296 77.9159 30.1576 77.9159 28.6556C77.9159 27.2416 78.9799 26.1806 80.2209 26.1806C81.4629 26.1806 82.5269 27.1526 82.5269 28.6556C82.5269 30.1576 81.4629 31.1296 80.2209 31.1296ZM71.3549 24.6796C69.1379 24.6796 67.2759 26.3576 67.2759 28.7436C67.2759 31.0416 69.1379 32.8086 71.3549 32.8086C73.5709 32.8086 75.4329 31.1296 75.4329 28.7436C75.4329 26.3576 73.6599 24.6786 71.3549 24.6786V24.6796ZM71.3549 31.1296C70.1129 31.1296 69.0489 30.1576 69.0489 28.6556C69.0489 27.2416 70.1129 26.1806 71.3549 26.1806C72.5959 26.1806 73.6599 27.1526 73.6599 28.6556C73.6599 30.1576 72.5959 31.1296 71.3549 31.1296ZM60.8029 25.9156V27.5956H64.9709C64.8819 28.5666 64.5269 29.2736 63.9949 29.7156C63.3749 30.3346 62.4879 30.9526 60.8029 30.9526C58.2319 30.9526 56.2809 28.9206 56.2809 26.3576C56.2809 23.7946 58.2319 21.7626 60.8029 21.7626C62.1329 21.7626 63.1969 22.2926 63.9069 22.9996L65.1479 21.7626C64.0839 20.7906 62.7539 19.9946 60.8029 19.9946C57.3449 19.9946 54.4189 22.8226 54.4189 26.2696C54.4189 29.7156 57.3449 32.5436 60.8029 32.5436C62.6649 32.5436 64.0839 31.9256 65.2369 30.7766C66.3889 29.6266 66.7439 28.0366 66.7439 26.7996C66.7439 26.3576 66.7439 26.0046 66.6549 25.7396H60.8039V25.9156H60.8029ZM103.984 27.2416C103.629 26.3576 102.654 24.6786 100.526 24.6786C98.3979 24.6786 96.7129 26.3586 96.7129 28.7436C96.7129 31.0416 98.3979 32.8086 100.703 32.8086C102.565 32.8086 103.629 31.6596 104.073 31.0416L102.654 30.1576C102.211 30.8646 101.59 31.3066 100.614 31.3066C99.7279 31.3066 99.1069 30.8646 98.6639 30.0696L104.073 27.8596L103.984 27.2416ZM98.4869 28.5666C98.3979 26.9766 99.7279 26.1806 100.615 26.1806C101.324 26.1806 101.945 26.5346 102.122 27.0646L98.4869 28.5666ZM94.0529 32.5436H95.8269V20.6136H94.0529V32.5436ZM91.1269 25.5626C90.6839 25.1206 89.8859 24.6786 88.9109 24.6786C86.8709 24.6786 85.0089 26.4466 85.0089 28.7436C85.0089 31.0416 86.8709 32.8086 88.9109 32.8086C89.8859 32.8086 90.6839 32.3666 91.0389 31.9256H91.1269V32.5436C91.1269 34.0466 90.3289 34.9296 88.9989 34.9296C87.9349 34.9296 87.2259 34.1346 86.9599 33.5156L85.3639 33.9576C85.8069 35.0176 86.9599 36.3436 88.9989 36.3436C91.1269 36.3436 92.8119 35.1066 92.8119 32.1016V24.8556H91.1269V25.5626ZM89.0879 31.1296C87.8469 31.1296 86.8709 30.0696 86.8709 28.6556C86.8709 27.2416 87.9349 26.1806 89.0879 26.1806C90.3289 26.1806 91.2159 27.2406 91.2159 28.6556C91.3049 30.1576 90.3289 31.1296 89.0879 31.1296ZM112.318 20.6136H108.064V32.4556H109.837V27.9486H112.32C114.27 27.9486 116.221 26.5346 116.221 24.2366C116.221 21.9396 114.359 20.6136 112.32 20.6136H112.318ZM112.408 26.3576H109.836V22.2926H112.407C113.737 22.2926 114.535 23.3526 114.535 24.3256C114.447 25.2086 113.737 26.3576 112.407 26.3576H112.408ZM123.402 24.6786C122.072 24.6786 120.742 25.2086 120.21 26.5346L121.806 27.1526C122.161 26.5346 122.781 26.2696 123.402 26.2696C124.289 26.2696 125.264 26.7996 125.264 27.7716V27.8596C124.687 27.5662 124.049 27.415 123.402 27.4186C121.717 27.4186 119.944 28.3906 119.944 30.0686C119.944 31.6596 121.363 32.7206 122.87 32.7206C124.023 32.7206 124.732 32.1906 125.175 31.5716H125.264V32.4556H126.949V27.8596C127.037 25.8276 125.441 24.6796 123.402 24.6796V24.6786ZM123.136 31.1296C122.516 31.1296 121.717 30.8646 121.717 30.1576C121.717 29.2736 122.693 28.9206 123.579 28.9206C124.377 28.9206 124.732 29.0976 125.175 29.2736C125.175 30.3336 124.2 31.1296 123.136 31.1296ZM133.244 24.9436L131.204 30.0696H131.116L128.988 24.9436H127.038L130.229 32.1016L128.456 36.0786H130.318L135.195 24.8556H133.244V24.9436ZM117.284 32.5436H119.057V20.6136H117.284V32.5436Z" fill="white"/>
<path fill-rule="evenodd" clip-rule="evenodd" d="M25.2479 15.1576C24.9819 15.4226 24.8049 15.8646 24.8049 16.4836V37.5156C24.8049 38.1346 24.9819 38.5756 25.2479 38.8416L25.3369 38.9296L37.1289 27.1766V26.8226L25.2479 15.1576Z" fill="url(#paint0_linear_2020_8868)"/>
<path fill-rule="evenodd" clip-rule="evenodd" d="M41.1189 31.0647L37.2179 27.1767V26.8227L41.1189 22.9347L41.2079 23.0227L45.9079 25.6737C47.2379 26.4697 47.2379 27.7067 45.9079 28.4137L41.2079 31.0647H41.1189Z" fill="url(#paint1_linear_2020_8868)"/>
<path fill-rule="evenodd" clip-rule="evenodd" d="M41.2079 30.9766L37.2179 26.9996L25.2479 38.8416C25.6909 39.2836 26.4009 39.3716 27.1979 38.9296L41.2079 30.9766Z" fill="url(#paint2_linear_2020_8868)"/>
<path fill-rule="evenodd" clip-rule="evenodd" d="M41.2079 23.0227L27.2879 15.0697C26.4889 14.6277 25.7799 14.6277 25.3369 15.1577L37.2179 26.9997L41.2079 23.0227Z" fill="url(#paint3_linear_2020_8868)"/>
<path opacity="0.2" fill-rule="evenodd" clip-rule="evenodd" d="M41.1189 30.8876L27.2869 38.7526C26.4889 39.1946 25.7799 39.1946 25.3369 38.7526L25.2479 38.8416L25.3369 38.9296C25.7799 39.3716 26.4889 39.3716 27.2869 38.9296L41.2079 30.9766L41.1189 30.8876Z" fill="#222222"/>
<path opacity="0.12" fill-rule="evenodd" clip-rule="evenodd" d="M25.2479 38.6646C24.9819 38.3996 24.8049 37.9576 24.8049 37.3396V37.5156C24.8049 38.1346 24.9819 38.5756 25.2479 38.8416V38.6646ZM45.8179 28.2366L41.0309 30.8876L41.1189 30.9766L45.8189 28.3256C46.5279 27.9716 46.7939 27.4416 46.7939 26.9116C46.7939 27.4416 46.4389 27.8836 45.8189 28.2366H45.8179Z" fill="#222222"/>
<path opacity="0.25" fill-rule="evenodd" clip-rule="evenodd" d="M27.2869 15.2466L45.9069 25.7626C46.5279 26.1156 46.8829 26.5576 46.8829 26.9996C46.8829 26.4696 46.5279 26.0276 45.9069 25.5856L27.2869 15.0696C25.9569 14.2736 24.8929 14.9806 24.8929 16.4836V16.6596C24.8049 15.1576 25.8689 14.4506 27.2869 15.2466Z" fill="white"/>
<defs>
<linearGradient id="paint0_linear_2020_8868" x1="36.0961" y1="16.2737" x2="17.1866" y2="21.3392" gradientUnits="userSpaceOnUse">
<stop stop-color="#00A0FF"/>
<stop offset="0.007" stop-color="#00A1FF"/>
<stop offset="0.26" stop-color="#00BEFF"/>
<stop offset="0.512" stop-color="#00D2FF"/>
<stop offset="0.76" stop-color="#00DFFF"/>
<stop offset="1" stop-color="#00E3FF"/>
</linearGradient>
<linearGradient id="paint1_linear_2020_8868" x1="47.5678" y1="27.0015" x2="24.5022" y2="27.0015" gradientUnits="userSpaceOnUse">
<stop stop-color="#FFE000"/>
<stop offset="0.409" stop-color="#FFBD00"/>
<stop offset="0.775" stop-color="#FFA500"/>
<stop offset="1" stop-color="#FF9C00"/>
</linearGradient>
<linearGradient id="paint2_linear_2020_8868" x1="38.9815" y1="29.1807" x2="23.956" y2="54.7235" gradientUnits="userSpaceOnUse">
<stop stop-color="#FF3A44"/>
<stop offset="1" stop-color="#C31162"/>
</linearGradient>
<linearGradient id="paint3_linear_2020_8868" x1="22.2735" y1="8.16766" x2="29.0756" y2="19.5454" gradientUnits="userSpaceOnUse">
<stop stop-color="#32A071"/>
<stop offset="0.069" stop-color="#2DA771"/>
<stop offset="0.476" stop-color="#15CF74"/>
<stop offset="0.801" stop-color="#06E775"/>
<stop offset="1" stop-color="#00F076"/>
</linearGradient>
</defs>
</svg>
