<svg width="149" height="40" viewBox="0 0 149 40" fill="none" xmlns="http://www.w3.org/2000/svg">
<rect width="148.039" height="40" rx="20" fill="white" fill-opacity="0.2"/>
<path fill-rule="evenodd" clip-rule="evenodd" d="M74.236 17.729C72.0672 17.729 70.2448 19.3713 70.2448 21.7065C70.2448 23.9556 72.0672 25.6849 74.236 25.6849C76.4058 25.6849 78.2281 24.0417 78.2281 21.7065C78.2281 19.3713 76.4929 17.7281 74.236 17.7281V17.729ZM74.236 24.0417C73.0214 24.0417 71.98 23.0904 71.98 21.6204C71.98 20.2365 73.0214 19.1981 74.236 19.1981C75.4515 19.1981 76.4929 20.1494 76.4929 21.6204C76.4929 23.0904 75.4515 24.0417 74.236 24.0417ZM65.5588 17.729C63.389 17.729 61.5666 19.3713 61.5666 21.7065C61.5666 23.9556 63.389 25.6849 65.5588 25.6849C67.7276 25.6849 69.5499 24.0417 69.5499 21.7065C69.5499 19.3713 67.8147 17.7281 65.5588 17.7281V17.729ZM65.5588 24.0417C64.3432 24.0417 63.3019 23.0904 63.3019 21.6204C63.3019 20.2365 64.3432 19.1981 65.5588 19.1981C66.7733 19.1981 67.8147 20.1494 67.8147 21.6204C67.8147 23.0904 66.7733 24.0417 65.5588 24.0417ZM55.2315 18.9387V20.5829H59.3107C59.2236 21.5333 58.8762 22.2252 58.3555 22.6578C57.7487 23.2636 56.8806 23.8685 55.2315 23.8685C52.7152 23.8685 50.8057 21.8797 50.8057 19.3713C50.8057 16.8629 52.7152 14.8742 55.2315 14.8742C56.5331 14.8742 57.5745 15.3929 58.2694 16.0848L59.4839 14.8742C58.4426 13.9228 57.1409 13.1438 55.2315 13.1438C51.8471 13.1438 48.9834 15.9116 48.9834 19.2852C48.9834 22.6578 51.8471 25.4256 55.2315 25.4256C57.0538 25.4256 58.4426 24.8207 59.571 23.6962C60.6985 22.5707 61.0459 21.0145 61.0459 19.8039C61.0459 19.3713 61.0459 19.0258 60.9588 18.7665H55.2324V18.9387H55.2315ZM97.4929 20.2365C97.1455 19.3713 96.1913 17.7281 94.1086 17.7281C92.0259 17.7281 90.3768 19.3723 90.3768 21.7065C90.3768 23.9556 92.0259 25.6849 94.2818 25.6849C96.1042 25.6849 97.1455 24.5604 97.5801 23.9556L96.1913 23.0904C95.7577 23.7823 95.1499 24.2149 94.1947 24.2149C93.3276 24.2149 92.7198 23.7823 92.2862 23.0043L97.5801 20.8413L97.4929 20.2365V20.2365ZM92.113 21.5333C92.0259 19.9771 93.3276 19.1981 94.1957 19.1981C94.8896 19.1981 95.4974 19.5445 95.6706 20.0632L92.113 21.5333ZM87.7734 25.4256H89.5096V13.7496H87.7734V25.4256ZM84.9097 18.5932C84.4762 18.1606 83.6952 17.7281 82.7409 17.7281C80.7444 17.7281 78.922 19.4584 78.922 21.7065C78.922 23.9556 80.7444 25.6849 82.7409 25.6849C83.6952 25.6849 84.4762 25.2523 84.8236 24.8207H84.9097V25.4256C84.9097 26.8966 84.1287 27.7608 82.827 27.7608C81.7857 27.7608 81.0918 26.9827 80.8315 26.3769L79.2694 26.8095C79.703 27.8469 80.8315 29.1447 82.827 29.1447C84.9097 29.1447 86.5588 27.934 86.5588 24.993V17.9013H84.9097V18.5932ZM82.9141 24.0417C81.6996 24.0417 80.7444 23.0043 80.7444 21.6204C80.7444 20.2365 81.7857 19.1981 82.9141 19.1981C84.1287 19.1981 84.9968 20.2355 84.9968 21.6204C85.0839 23.0904 84.1287 24.0417 82.9141 24.0417ZM105.649 13.7496H101.486V25.3395H103.221V20.9284H105.651C107.56 20.9284 109.469 19.5445 109.469 17.2955C109.469 15.0474 107.647 13.7496 105.651 13.7496H105.649ZM105.738 19.3713H103.22V15.3929H105.737C107.038 15.3929 107.819 16.4303 107.819 17.3826C107.733 18.2468 107.038 19.3713 105.737 19.3713H105.738ZM116.497 17.7281C115.196 17.7281 113.894 18.2468 113.373 19.5445L114.935 20.1494C115.283 19.5445 115.89 19.2852 116.497 19.2852C117.366 19.2852 118.32 19.8039 118.32 20.7552V20.8413C117.755 20.5542 117.131 20.4062 116.497 20.4097C114.848 20.4097 113.113 21.361 113.113 23.0033C113.113 24.5604 114.502 25.5988 115.977 25.5988C117.105 25.5988 117.799 25.0801 118.233 24.4743H118.32V25.3395H119.969V20.8413C120.055 18.8526 118.493 17.729 116.497 17.729V17.7281ZM116.237 24.0417C115.63 24.0417 114.848 23.7823 114.848 23.0904C114.848 22.2252 115.804 21.8797 116.671 21.8797C117.452 21.8797 117.799 22.053 118.233 22.2252C118.233 23.2626 117.278 24.0417 116.237 24.0417V24.0417ZM126.13 17.9874L124.133 23.0043H124.047L121.965 17.9874H120.056L123.179 24.993L121.444 28.8853H123.266L128.039 17.9013H126.13V17.9874V17.9874ZM110.51 25.4256H112.245V13.7496H110.51V25.4256Z" fill="white"/>
<path fill-rule="evenodd" clip-rule="evenodd" d="M20.4336 8.40979C20.1732 8.66915 20 9.10174 20 9.70755V30.2917C20 30.8975 20.1732 31.3291 20.4336 31.5895L20.5207 31.6756L32.0616 20.1729V19.8264L20.4336 8.40979Z" fill="url(#paint0_linear_177_13541)"/>
<path fill-rule="evenodd" clip-rule="evenodd" d="M35.9667 23.9781L32.1488 20.1729V19.8264L35.9667 16.0212L36.0538 16.1074L40.6538 18.7019C41.9554 19.481 41.9554 20.6916 40.6538 21.3836L36.0538 23.9781H35.9667Z" fill="url(#paint1_linear_177_13541)"/>
<path fill-rule="evenodd" clip-rule="evenodd" d="M36.0536 23.8919L32.1486 19.9996L20.4335 31.5895C20.867 32.0221 21.5619 32.1082 22.3419 31.6756L36.0536 23.8919" fill="url(#paint2_linear_177_13541)"/>
<path fill-rule="evenodd" clip-rule="evenodd" d="M36.0537 16.1073L22.4301 8.32368C21.6481 7.8911 20.9542 7.8911 20.5206 8.40981L32.1486 19.9996L36.0537 16.1073Z" fill="url(#paint3_linear_177_13541)"/>
<path opacity="0.2" fill-rule="evenodd" clip-rule="evenodd" d="M35.9665 23.8048L22.4291 31.5023C21.648 31.9349 20.9541 31.9349 20.5206 31.5023L20.4335 31.5894L20.5206 31.6756C20.9541 32.1081 21.648 32.1081 22.4291 31.6756L36.0536 23.8919L35.9665 23.8048Z" fill="#222222"/>
<path opacity="0.12" fill-rule="evenodd" clip-rule="evenodd" d="M20.4336 31.4163C20.1732 31.1569 20 30.7244 20 30.1195V30.2918C20 30.8976 20.1732 31.3292 20.4336 31.5895V31.4163ZM40.5655 21.2104L35.8805 23.8049L35.9666 23.892L40.5665 21.2975C41.2604 20.951 41.5208 20.4323 41.5208 19.9136C41.5208 20.4323 41.1733 20.8649 40.5665 21.2104H40.5655Z" fill="#222222"/>
<path opacity="0.25" fill-rule="evenodd" clip-rule="evenodd" d="M22.4293 8.4969L40.6528 18.789C41.2606 19.1345 41.608 19.567 41.608 19.9996C41.608 19.4809 41.2606 19.0483 40.6528 18.6157L22.4293 8.32367C21.1276 7.54462 20.0863 8.23656 20.0863 9.70756V9.87981C20.0002 8.40979 21.0415 7.71785 22.4293 8.4969Z" fill="white"/>
<defs>
<linearGradient id="paint0_linear_177_13541" x1="31.0507" y1="9.50212" x2="12.5438" y2="14.4598" gradientUnits="userSpaceOnUse">
<stop stop-color="#00A0FF"/>
<stop offset="0.007" stop-color="#00A1FF"/>
<stop offset="0.26" stop-color="#00BEFF"/>
<stop offset="0.512" stop-color="#00D2FF"/>
<stop offset="0.76" stop-color="#00DFFF"/>
<stop offset="1" stop-color="#00E3FF"/>
</linearGradient>
<linearGradient id="paint1_linear_177_13541" x1="42.2783" y1="20.0014" x2="19.7039" y2="20.0014" gradientUnits="userSpaceOnUse">
<stop stop-color="#FFE000"/>
<stop offset="0.409" stop-color="#FFBD00"/>
<stop offset="0.775" stop-color="#FFA500"/>
<stop offset="1" stop-color="#FF9C00"/>
</linearGradient>
<linearGradient id="paint2_linear_177_13541" x1="33.8746" y1="22.1342" x2="19.1691" y2="47.1332" gradientUnits="userSpaceOnUse">
<stop stop-color="#FF3A44"/>
<stop offset="1" stop-color="#C31162"/>
</linearGradient>
<linearGradient id="paint3_linear_177_13541" x1="17.5224" y1="1.56865" x2="24.1797" y2="12.7041" gradientUnits="userSpaceOnUse">
<stop stop-color="#32A071"/>
<stop offset="0.069" stop-color="#2DA771"/>
<stop offset="0.476" stop-color="#15CF74"/>
<stop offset="0.801" stop-color="#06E775"/>
<stop offset="1" stop-color="#00F076"/>
</linearGradient>
</defs>
</svg>
