<svg width="112" height="42" viewBox="0 0 112 42" fill="none" xmlns="http://www.w3.org/2000/svg">
<path fill-rule="evenodd" clip-rule="evenodd" d="M17.9017 0.225836C16.9766 0.345359 16.1619 0.478879 16.0912 0.522561C16.0205 0.566244 15.6237 0.681421 15.2092 0.778459C14.3177 0.987217 13.6216 1.21245 13.0644 1.47259C12.8415 1.57662 12.6196 1.66271 12.5713 1.664C12.4619 1.66685 10.518 2.63857 10.1169 2.89102C9.86216 3.05127 9.01848 3.6101 7.85692 4.38785C7.4453 4.66337 4.99233 7.09031 4.48251 7.72639C4.26517 7.99757 3.82951 8.6188 3.51434 9.10693C3.19927 9.59506 2.86804 10.1053 2.7783 10.2409C2.29767 10.9675 1.2793 13.2962 1.13976 13.9882C1.1015 14.178 1.01325 14.4448 0.943627 14.5812C0.874106 14.7175 0.785651 15.0503 0.747094 15.3208C0.708636 15.5913 0.593654 16.1675 0.491689 16.6014C0.340813 17.2437 0.307384 17.7658 0.311624 19.4118C0.316752 21.4349 0.335193 21.6383 0.646905 23.1098C1.04766 25.0019 1.99355 26.7503 3.24148 27.9057C3.8298 28.4503 4.96157 29.273 5.1226 29.273C5.17013 29.273 5.31479 29.3552 5.44418 29.4556C5.57355 29.5559 5.9678 29.76 6.32034 29.909C6.67288 30.0581 7.16101 30.2652 7.40507 30.3695C7.87327 30.5695 8.54602 30.7702 9.52522 31.0018C9.85064 31.0789 10.4275 31.2206 10.8072 31.3169C11.798 31.568 17.4072 31.5739 18.5975 31.325C19.0314 31.2343 19.7002 31.1135 20.0837 31.0566C20.4673 30.9998 20.9721 30.8857 21.2055 30.8034C21.439 30.721 21.702 30.6542 21.7902 30.6549C21.9735 30.6563 23.4851 30.2296 24.2184 29.9693C24.4896 29.8731 24.9333 29.7246 25.2045 29.6394C25.8899 29.4238 26.5152 29.1941 26.9795 28.9874C27.6471 28.69 28.3275 28.4183 29.0997 28.1406C29.5064 27.9943 30.0612 27.792 30.3323 27.6909C30.6035 27.5899 30.9585 27.4768 31.1212 27.4397C31.2839 27.4026 31.4699 27.3307 31.5346 27.2799C31.5992 27.2291 31.9098 27.1045 32.2249 27.0031C32.5398 26.9016 33.1748 26.6807 33.6358 26.5119C34.0968 26.3433 34.6515 26.1608 34.8685 26.1065C35.0854 26.0523 35.3517 25.951 35.4602 25.8816C35.5686 25.8121 35.8722 25.7021 36.135 25.6368C36.3976 25.5717 36.7081 25.4579 36.8252 25.3838C36.9422 25.3098 37.1779 25.2202 37.3487 25.1846C37.5197 25.149 37.8287 25.0337 38.0353 24.9284C38.2419 24.8231 38.5013 24.7366 38.6118 24.7363C38.7225 24.7359 38.9461 24.6642 39.1088 24.5768C39.2715 24.4895 39.6043 24.3585 39.8483 24.286C40.0924 24.2134 40.6693 24.0153 41.1303 23.8458C41.5913 23.6763 42.1682 23.474 42.4123 23.396C42.6564 23.3181 42.9892 23.192 43.1519 23.1157C43.3146 23.0395 43.5808 22.9453 43.7435 22.9066C43.9062 22.8678 44.0901 22.7963 44.1521 22.7477C44.2141 22.6992 44.547 22.5755 44.8917 22.473C47.1248 21.8091 47.9058 21.4032 48.3537 20.6742C48.623 20.2358 48.5733 19.9642 48.1671 19.6543C47.8716 19.429 47.6835 19.3731 47.107 19.3388C45.827 19.2628 43.7116 19.6555 41.6234 20.3567C40.4211 20.7603 39.2215 21.0099 38.1227 21.0849C36.7075 21.1815 34.7167 21.0606 34.206 20.8472C34.0043 20.7629 33.7525 20.6938 33.6465 20.6938C33.4666 20.6938 32.1018 20.2005 31.7552 20.0103C31.5042 19.8726 30.3893 19.4393 29.5928 19.1702C28.5438 18.8156 27.0812 18.8134 26.0053 19.1646C25.2587 19.4083 24.4649 19.8327 24.4649 19.9883C24.4649 20.0619 26.4156 21.3989 27.867 22.32C28.1924 22.5266 28.8359 22.9465 29.2969 23.2532C29.7579 23.5599 30.2016 23.842 30.283 23.8802C30.5586 24.0098 31.5999 24.7856 31.6315 24.8848C31.6487 24.9391 31.3191 25.1669 30.899 25.391C30.4789 25.6151 29.8783 25.9381 29.5644 26.1089C28.5222 26.6756 27.7492 26.906 26.6837 26.9675C25.6453 27.0273 25.3453 26.9806 23.4925 26.4703C22.9849 26.3305 22.3858 26.2165 22.1612 26.2171C21.743 26.2181 20.6359 26.6602 20.7546 26.779C20.8442 26.8686 21.9148 27.6139 22.6653 28.1092C23.0042 28.3329 23.2816 28.5516 23.2816 28.5952C23.2816 28.8657 21.8305 29.151 19.7507 29.2896C17.0707 29.4683 14.6898 29.184 12.6241 28.4389C12.2252 28.295 11.8529 28.1407 11.7967 28.0962C11.7406 28.0516 11.5837 27.9811 11.4481 27.9395C11.3125 27.8979 10.891 27.6614 10.5113 27.4139C8.26181 25.9476 7.08537 24.6103 5.98782 22.2716C5.47208 21.1726 5.15336 19.3802 5.1435 17.5245C5.13788 16.4445 5.16175 16.2475 5.32278 16.0487L5.50857 15.8192L5.6202 16.4075C5.87087 17.7301 6.62456 19.6518 6.86271 19.5759C6.91694 19.5587 7.00884 19.2151 7.06703 18.8126C7.12511 18.41 7.22402 17.9253 7.28674 17.7355C7.34945 17.5457 7.46572 17.1684 7.5451 16.8972C7.77102 16.125 8.04276 15.4144 8.20983 15.159C8.29398 15.0302 8.39657 14.8141 8.43793 14.6785C8.47928 14.5429 8.56907 14.3654 8.63755 14.284C8.70587 14.2027 8.83981 13.9808 8.93495 13.791C9.43407 12.7959 10.9794 10.8067 12.0025 9.84243C13.1753 8.73714 14.7449 7.57882 15.7378 7.0864C15.9547 6.97868 16.1988 6.84881 16.2801 6.79774C17.0041 6.34313 19.7188 5.38284 20.6191 5.26293C20.9174 5.22319 21.4277 5.12172 21.7531 5.0374C22.1909 4.9241 22.8704 4.88308 24.3663 4.87973C26.2018 4.87558 26.5037 4.89984 27.6465 5.14322C29.0414 5.44024 30.0255 5.72529 30.639 6.0098C30.8619 6.11323 31.0808 6.1979 31.1255 6.1979C31.2574 6.1979 33.1705 7.19148 33.4268 7.39313C33.5565 7.49498 33.6988 7.57844 33.7433 7.57844C34.0258 7.57844 35.8889 9.07356 36.897 10.1094C38.218 11.4666 39.0319 12.5664 39.8036 14.0375C40.0027 14.4172 40.1995 14.7721 40.2407 14.8264C40.2819 14.8806 40.3726 15.1025 40.4421 15.3195C40.5116 15.5364 40.6251 15.8026 40.6941 15.9111C40.763 16.0196 40.8864 16.3678 40.968 16.685C41.1391 17.3489 41.1012 17.2944 41.4508 17.3783C41.6934 17.4366 41.722 17.4165 41.722 17.1888C41.722 17.0488 41.6608 16.7262 41.5862 16.472C41.5114 16.2178 41.404 15.8322 41.3472 15.6153C41.1285 14.7777 40.9469 14.2862 40.2525 12.6518C39.4194 10.6912 37.839 8.34988 36.2155 6.67119C35.8641 6.30795 35.5503 5.97244 35.5183 5.92581C35.4149 5.77493 33.2045 3.98512 32.7976 3.72271C32.1961 3.33477 31.8315 3.10649 31.6143 2.98184C31.5058 2.91952 31.2174 2.75237 30.9733 2.61027C30.7292 2.46827 30.3742 2.2821 30.1844 2.1966C29.9946 2.1111 29.6588 1.95579 29.4383 1.85145C29.2178 1.74712 29.0008 1.66172 28.9561 1.66172C28.9113 1.66172 28.6924 1.57662 28.4695 1.47259C27.5919 1.06295 25.5782 0.507473 24.317 0.327212C23.8289 0.257398 23.141 0.152277 22.7885 0.0935967C21.8062 -0.0700918 19.7638 -0.0147707 17.9017 0.225836ZM39.2567 24.9193C39.2567 24.9733 39.0903 25.0709 38.8869 25.1362C38.6835 25.2014 38.4506 25.3106 38.3692 25.3787C38.2878 25.4468 38.1103 25.5344 37.9747 25.5735C37.7388 25.6414 37.0354 25.9537 36.2983 26.3174C36.1085 26.4112 35.7912 26.5396 35.5932 26.6029C35.2654 26.7076 35.2395 26.742 35.3042 26.9848C35.3433 27.1315 35.4689 27.2984 35.5834 27.3557C35.6978 27.4131 35.8944 27.5344 36.0202 27.6252C37.0174 28.3455 37.6204 28.682 37.8074 28.6226C38.4316 28.4245 38.9126 27.9235 39.3075 27.0604C39.5158 26.6048 39.5737 26.3199 39.5861 25.6882C39.5997 25.0005 39.5781 24.8861 39.4293 24.8561C39.3344 24.8368 39.2567 24.8652 39.2567 24.9193Z" fill="#6F6FBF"/>
<path opacity="0.5" d="M28.1828 31.1959C28.1828 31.1959 40.6469 27.7449 39.8185 31.1959C39.2269 33.6612 33.5074 40.1248 25.1254 41.6488C14.8205 43.5224 7.3095 37.4414 5.20581 34.0557C5.96093 35.0984 12.3638 39.0441 17.6368 39.0441C21.0266 39.0441 22.5332 38.7617 23.6631 37.9142C25.2123 36.7523 18.7668 36.4076 18.7668 36.4076C18.7668 36.4076 29.3127 36.4076 31.9492 34.1478C34.4166 32.0329 28.1828 31.1959 28.1828 31.1959Z" fill="#6F6FBF"/>
<path d="M68.9542 20.7255L67.9561 19.0118C67.4288 19.3696 66.2424 19.8781 64.6605 19.8781C62.0052 19.8781 59.9148 18.2585 59.9148 15.1889C59.9148 12.1757 61.8733 10.349 64.4345 10.349C66.1859 10.349 67.4665 11.1965 67.9749 11.7426C68.2574 11.5919 68.8789 11.0081 68.8789 10.3679C68.8789 9.74639 67.9938 8.33398 64.3968 8.33398C60.6304 8.33398 57.5608 10.8575 57.5608 15.1889C57.5608 19.5579 60.7622 21.9308 64.4533 21.9308C67.0333 21.9308 68.4269 21.121 68.973 20.7255H68.9542Z" fill="#222222"/>
<path d="M78.8614 15.886C78.8614 12.9482 76.8087 11.8748 73.8706 11.8748C71.4036 11.8748 70.7445 12.5527 70.7445 13.2683C70.7445 13.7768 71.1023 14.1346 71.2529 14.2664C71.5354 14.0404 72.4017 13.6073 73.8329 13.6073C75.5278 13.6073 76.7145 14.0404 76.7145 15.8107C76.2814 15.7542 75.3583 15.6788 74.3979 15.6788C71.0646 15.6788 69.8782 16.7523 69.8782 18.805C69.8782 20.3869 70.7633 21.8558 74.6804 21.8558C76.6392 21.8558 78.3529 21.6486 78.8614 21.5545V15.886ZM76.7334 20.1232C76.5074 20.1797 75.8294 20.2927 74.6804 20.2927C72.6088 20.2927 72.025 19.7089 72.025 18.7861C72.025 17.675 72.7595 17.1854 74.4732 17.1854C75.8482 17.1854 76.4885 17.3172 76.7334 17.3737V20.1232Z" fill="#222222"/>
<path d="M80.5057 20.6882C80.7882 20.933 82.5773 21.8558 85.2703 21.8558C88.0762 21.8558 89.6205 20.6317 89.6205 18.7485C89.6205 17.0724 88.4152 16.2626 86.3249 15.9802L84.404 15.7353C83.3682 15.6035 82.8033 15.3022 82.8033 14.6431C82.8033 13.871 83.5377 13.4943 84.9878 13.4943C87.0781 13.4943 88.2269 14.2476 88.434 14.4548C88.5847 14.3983 89.0932 14.0028 89.0932 13.4378C89.0932 12.515 87.5866 11.8748 84.9689 11.8748C81.8616 11.8748 80.6752 13.2495 80.6752 14.8502C80.6752 16.6958 82.0876 17.4867 84.1027 17.6939L85.5716 17.8634C86.9275 18.014 87.3794 18.353 87.3794 19.0498C87.3794 19.8784 86.4567 20.1797 85.1573 20.1797C83.1799 20.1797 81.6545 19.4829 81.3155 19.2381L80.5057 20.6882Z" fill="#222222"/>
<path d="M91.1807 25.3585H93.3275V20.4057C93.949 21.2155 95.0977 21.8369 96.529 21.8369C99.2785 21.8369 101.35 19.7842 101.35 16.8653C101.35 13.9839 99.222 11.8748 96.3783 11.8748C93.271 11.8748 91.1807 13.7956 91.1807 17.2984V25.3585ZM96.2277 19.9349C94.4951 19.9349 93.3087 18.5978 93.3087 16.8464C93.3087 15.0574 94.5139 13.8145 96.2277 13.8145C97.9602 13.8145 99.1278 15.1327 99.1278 16.8464C99.1278 18.5978 97.9602 19.9349 96.2277 19.9349Z" fill="#222222"/>
<path d="M111.689 15.886C111.689 12.9482 109.636 11.8748 106.698 11.8748C104.231 11.8748 103.572 12.5527 103.572 13.2683C103.572 13.7768 103.93 14.1346 104.081 14.2664C104.363 14.0404 105.229 13.6073 106.661 13.6073C108.355 13.6073 109.542 14.0404 109.542 15.8107C109.109 15.7542 108.186 15.6788 107.226 15.6788C103.892 15.6788 102.706 16.7523 102.706 18.805C102.706 20.3869 103.591 21.8558 107.508 21.8558C109.467 21.8558 111.18 21.6486 111.689 21.5545V15.886ZM109.561 20.1232C109.335 20.1797 108.657 20.2927 107.508 20.2927C105.436 20.2927 104.853 19.7089 104.853 18.7861C104.853 17.675 105.587 17.1854 107.301 17.1854C108.676 17.1854 109.316 17.3172 109.561 17.3737V20.1232Z" fill="#222222"/>
<path d="M60.3997 33.6449C60.5579 33.2126 60.811 32.5271 61.1168 31.7572H64.6497C64.8712 32.3267 65.2297 33.3075 65.3668 33.6449H66.7589C66.4214 32.7064 64.386 27.6337 63.7111 26.4526C63.6795 26.421 63.3314 26.2206 62.9623 26.2206C62.4667 26.2206 62.1714 26.4104 61.9183 26.9693C60.9059 29.2262 59.8407 31.7572 59.1342 33.6449H60.3997ZM61.5597 30.6499C61.9816 29.5531 62.5405 28.277 62.9096 27.4966C63.1627 28.0029 63.8377 29.6058 64.2279 30.6499H61.5597Z" fill="#222222"/>
<path d="M66.7631 33.6456H71.8674V32.591H68.3028C69.0094 31.9583 70.7179 30.4291 71.4034 29.7436C71.7514 29.3956 71.8568 29.1952 71.8568 28.9316C71.8568 28.5414 71.6037 28.3516 71.1924 28.3516H66.9002C66.858 28.4359 66.7631 28.6679 66.7631 28.9105C66.7631 29.2585 66.9318 29.4483 67.3958 29.4483H70.1906C69.4313 30.2077 67.6911 31.8106 66.7631 32.6016V33.6456Z" fill="#222222"/>
<path d="M76.7786 32.411C76.5993 32.5059 76.072 32.7801 75.3446 32.7801C74.2584 32.7801 73.6889 32.295 73.5729 31.5778C73.8576 31.5884 74.0791 31.5989 74.3638 31.5989C76.7786 31.5989 77.4219 30.924 77.4219 29.9538C77.4219 29.0046 76.6204 28.2031 75.1548 28.2031C73.5096 28.2031 72.2863 29.3526 72.2863 31.04C72.2863 32.8117 73.5518 33.7925 75.1126 33.7925C76.2513 33.7925 76.9895 33.4023 77.2215 33.2546L76.7786 32.411ZM73.5201 30.7553C73.5518 29.9327 74.1002 29.1312 75.1337 29.1312C75.7662 29.1312 76.2513 29.3948 76.2513 29.9327C76.2513 30.344 75.9877 30.7658 74.4271 30.7658C74.1318 30.7658 73.8471 30.7658 73.5201 30.7553Z" fill="#222222"/>
<path d="M78.316 33.6448H79.5183V30.5865C79.5183 29.7112 79.9296 29.2788 80.7522 29.2788C81.2056 29.2788 81.5536 29.3948 81.7962 29.5108C81.8806 29.4581 82.0599 29.1944 82.0599 28.9519C82.0599 28.4457 81.4482 28.2031 80.5623 28.2031C79.1597 28.2031 78.316 28.9413 78.316 30.2385V33.6448Z" fill="#222222"/>
<path d="M82.5765 30.7453C82.5765 32.7912 83.7682 33.7931 85.4239 33.7931C87.0797 33.7931 88.2714 32.6119 88.2714 30.9984C88.2714 29.3638 87.1113 28.2037 85.5716 28.2037C84.7701 28.2037 84.1268 28.5623 83.7788 29.0157V25.9891C83.705 25.9574 83.4729 25.873 83.2198 25.873C82.8086 25.873 82.5765 26.0523 82.5765 26.432V30.7453ZM85.4029 32.7068C84.4432 32.7068 83.7682 32.0108 83.7682 30.9984C83.7682 30.0282 84.4326 29.2794 85.4029 29.2794C86.3731 29.2794 87.0269 30.0176 87.0269 30.9984C87.0269 31.9686 86.3731 32.7068 85.4029 32.7068Z" fill="#222222"/>
<path d="M94.0612 30.4494C94.0612 28.8042 92.9117 28.2031 91.2665 28.2031C89.885 28.2031 89.5159 28.5828 89.5159 28.9835C89.5159 29.2683 89.7163 29.4686 89.8006 29.5425C89.9588 29.4159 90.4439 29.1734 91.2454 29.1734C92.1946 29.1734 92.8589 29.4159 92.8589 30.4072C92.6164 30.3756 92.0996 30.3334 91.5618 30.3334C89.6952 30.3334 89.0308 30.9345 89.0308 32.084C89.0308 32.9699 89.5264 33.7925 91.72 33.7925C92.8168 33.7925 93.7764 33.6765 94.0612 33.6238V30.4494ZM92.8695 32.8223C92.7429 32.8539 92.3633 32.9172 91.72 32.9172C90.5599 32.9172 90.233 32.5903 90.233 32.0735C90.233 31.4513 90.6443 31.1771 91.604 31.1771C92.3738 31.1771 92.7324 31.2509 92.8695 31.2825V32.8223Z" fill="#222222"/>
<path d="M95.3515 33.6435H96.5538V28.4654C96.48 28.4338 96.2479 28.3494 95.9948 28.3494C95.5835 28.3494 95.3515 28.5181 95.3515 28.9083V33.6435ZM95.9527 25.9766C95.5414 25.9766 95.225 26.2929 95.225 26.7042C95.225 27.1155 95.5414 27.4319 95.9527 27.4319C96.3639 27.4319 96.6803 27.1155 96.6803 26.7042C96.6803 26.2929 96.3639 25.9766 95.9527 25.9766Z" fill="#222222"/>
<path d="M95.86 35.5945C96.0287 35.6789 96.5771 35.8581 97.136 35.8581C98.1485 35.8581 99.0976 35.4047 99.0976 33.8333V28.4654C99.0238 28.4338 98.7918 28.3494 98.5387 28.3494C98.1274 28.3494 97.8954 28.5181 97.8954 28.9083V33.9282C97.8954 34.7297 97.4313 34.8879 96.9462 34.8879C96.6404 34.8879 96.3451 34.8141 96.1764 34.7297L95.86 35.5945ZM98.4965 25.9766C98.0852 25.9766 97.7688 26.2929 97.7688 26.7042C97.7688 27.1155 98.0852 27.4319 98.4965 27.4319C98.9078 27.4319 99.2242 27.1155 99.2242 26.7042C99.2242 26.2929 98.9078 25.9766 98.4965 25.9766Z" fill="#222222"/>
<path d="M105.153 30.4494C105.153 28.8042 104.004 28.2031 102.359 28.2031C100.977 28.2031 100.608 28.5828 100.608 28.9835C100.608 29.2683 100.808 29.4686 100.893 29.5425C101.051 29.4159 101.536 29.1734 102.337 29.1734C103.287 29.1734 103.951 29.4159 103.951 30.4072C103.708 30.3756 103.192 30.3334 102.654 30.3334C100.787 30.3334 100.123 30.9345 100.123 32.084C100.123 32.9699 100.618 33.7925 102.812 33.7925C103.909 33.7925 104.868 33.6765 105.153 33.6238V30.4494ZM103.962 32.8223C103.835 32.8539 103.455 32.9172 102.812 32.9172C101.652 32.9172 101.325 32.5903 101.325 32.0735C101.325 31.4513 101.736 31.1771 102.696 31.1771C103.466 31.1771 103.824 31.2509 103.962 31.2825V32.8223Z" fill="#222222"/>
<path d="M106.391 33.6448H107.593V30.7553C107.593 29.7956 108.047 29.2894 108.964 29.2894C109.86 29.2894 110.335 29.7956 110.335 30.7553V33.6448H111.537V30.4494C111.537 29.0468 110.462 28.2031 108.964 28.2031C107.488 28.2031 106.391 29.0468 106.391 30.4494V33.6448Z" fill="#222222"/>
</svg>
