<svg width="144" height="40" viewBox="0 0 144 40" fill="none" xmlns="http://www.w3.org/2000/svg">
<rect width="144" height="40" rx="20" fill="white" fill-opacity="0.2"/>
<path fill-rule="evenodd" clip-rule="evenodd" d="M33.4662 11.8355C35.05 9.9541 34.7195 8 34.7195 8C34.7195 8 32.5026 8.00996 30.9098 10.0886C29.4918 11.9361 29.8533 13.5167 29.8533 13.5167C29.8533 13.5167 31.7756 13.8454 33.4642 11.8355H33.4662ZM36.507 20.7186C36.507 17.4976 39.1313 16.171 39.1313 16.171C39.1313 16.171 37.7882 13.7707 34.38 13.7707C32.3987 13.7707 30.8768 14.8862 30.057 14.8862C29.1023 14.8862 27.6773 13.8374 25.8399 13.8374C23.0138 13.8374 20 16.3413 20 21.115C20 25.9654 23.559 32 26.3781 32C27.3607 32 28.8716 31.019 30.3925 31.019C31.8864 31.019 32.9869 31.9651 34.4059 31.9651C37.4916 31.9651 39.7764 25.6029 39.7764 25.6029C39.7764 25.6029 36.509 24.3509 36.509 20.7186H36.507ZM58.9836 25.815H56.8297L55.6493 22.1448H51.545L50.4206 25.815H48.3225L52.3868 13.3205H54.8993L58.9836 25.815ZM55.2928 20.6041L54.2253 17.3432C54.1134 17.0096 53.9017 16.2258 53.5882 14.9898H53.5512C53.3623 15.7769 53.1625 16.5615 52.9521 17.3432L51.9035 20.6041H55.2928ZM69.4391 21.1996C69.4391 22.7325 69.0207 23.9426 68.1838 24.831C67.4339 25.6228 66.5042 26.0182 65.3917 26.0182C64.1924 26.0182 63.3316 25.5919 62.8063 24.7393H62.7684V29.4852H60.7452V19.7714C60.7452 18.8083 60.7202 17.8193 60.6703 16.8064H62.4488L62.5617 18.2336H62.6016C63.2757 17.158 64.2992 16.6222 65.6743 16.6222C66.7468 16.6222 67.6436 17.0405 68.3606 17.8811C69.0806 18.7237 69.4391 19.8302 69.4391 21.2006V21.1996ZM67.3779 21.2724C67.3779 20.3959 67.1782 19.6738 66.7788 19.1041C66.3424 18.5105 65.7542 18.2147 65.0192 18.2147C64.5179 18.2147 64.0646 18.38 63.6601 18.7057C63.2545 19.0317 62.9732 19.4866 62.8632 19.9945C62.8013 20.2435 62.7704 20.4447 62.7704 20.6061V22.107C62.7704 22.7643 62.9741 23.3171 63.3795 23.7673C63.787 24.2185 64.3142 24.4445 64.9633 24.4445C65.7252 24.4445 66.3184 24.1537 66.7428 23.5741C67.1662 22.9924 67.3799 22.2255 67.3799 21.2734L67.3779 21.2724ZM79.9125 21.1996C79.9125 22.7325 79.4941 23.9426 78.6562 24.831C77.9073 25.6228 76.9766 26.0182 75.8661 26.0182C74.6658 26.0182 73.805 25.5919 73.2807 24.7393H73.2428V29.4852H71.2186V19.7714C71.2186 18.8083 71.1936 17.8193 71.1437 16.8064H72.9232L73.0361 18.2336H73.073C73.7471 17.158 74.7706 16.6222 76.1467 16.6222C77.2192 16.6222 78.116 17.0405 78.836 17.8811C79.552 18.7237 79.9115 19.8302 79.9115 21.2006L79.9125 21.1996ZM77.8523 21.2724C77.8523 20.3959 77.6526 19.6738 77.2522 19.1041C76.8148 18.5105 76.2296 18.2147 75.4926 18.2147C74.9955 18.214 74.514 18.3879 74.1325 18.7057C73.7269 19.0317 73.4456 19.4866 73.3356 19.9945C73.2815 20.1942 73.2503 20.3993 73.2428 20.6061V22.107C73.2428 22.7643 73.4455 23.3171 73.8489 23.7673C74.2554 24.2185 74.7836 24.4445 75.4337 24.4445C76.1977 24.4445 76.7898 24.1537 77.2142 23.5741C77.6386 22.9924 77.8533 22.2255 77.8533 21.2734L77.8523 21.2724ZM91.6231 22.3122C91.6231 23.3749 91.2487 24.2384 90.5017 24.9067C89.6789 25.6357 88.5335 26.0022 87.0615 26.0022C85.7014 26.0022 84.6129 25.7413 83.7881 25.2214L84.2574 23.5531C85.1462 24.085 86.1198 24.3499 87.1813 24.3499C87.9433 24.3499 88.5364 24.1806 88.9629 23.84C89.3863 23.5004 89.599 23.0432 89.599 22.4755C89.599 21.9675 89.4242 21.5413 89.0737 21.1947C88.7252 20.8481 88.145 20.5264 87.3311 20.2286C85.1202 19.4119 84.0157 18.2167 84.0157 16.6451C84.0157 15.6192 84.4032 14.7756 85.1781 14.1203C85.951 13.4639 86.9816 13.1362 88.2698 13.1362C89.4202 13.1362 90.3749 13.3354 91.1358 13.7298L90.6295 15.3612C89.9195 14.9788 89.1136 14.7866 88.2139 14.7866C87.5019 14.7866 86.9467 14.9609 86.5472 15.3055C86.2107 15.6142 86.0409 15.9907 86.0409 16.4369C86.0409 16.9309 86.2337 17.3393 86.6201 17.6619C86.9586 17.9568 87.5698 18.2785 88.4576 18.6241C89.544 19.0573 90.3429 19.5633 90.8552 20.1429C91.3685 20.7226 91.6241 21.4457 91.6241 22.3092L91.6231 22.3122ZM98.3138 18.3083H96.0829V22.6817C96.0829 23.7952 96.4754 24.3509 97.2613 24.3509C97.6238 24.3509 97.9234 24.318 98.161 24.2573L98.2179 25.7771C97.8185 25.9246 97.2942 25.9993 96.6441 25.9993C95.8453 25.9993 95.2191 25.7572 94.7698 25.2762C94.3204 24.7931 94.0947 23.9854 94.0947 22.848V18.3063H92.7645V16.8044H94.0927V15.1541L96.0809 14.5615V16.8044H98.3118V18.3083H98.3138ZM108.374 21.2365C108.374 22.6209 107.974 23.7563 107.174 24.6467C106.336 25.563 105.223 26.0192 103.837 26.0192C102.503 26.0192 101.438 25.579 100.645 24.7025C99.8507 23.825 99.4532 22.7195 99.4532 21.3849C99.4532 19.9895 99.8627 18.8452 100.681 17.9568C101.498 17.0674 102.602 16.6222 103.986 16.6222C105.324 16.6222 106.399 17.0614 107.21 17.9388C107.985 18.7904 108.372 19.8899 108.372 21.2365H108.374ZM106.276 21.3012C106.276 20.4716 106.096 19.7575 105.732 19.1629C105.309 18.4438 104.702 18.0852 103.916 18.0852C103.103 18.0852 102.485 18.4458 102.061 19.1629C101.697 19.7595 101.518 20.4825 101.518 21.3371C101.518 22.1687 101.699 22.8809 102.062 23.4745C102.499 24.1926 103.11 24.5511 103.899 24.5511C104.671 24.5511 105.277 24.1856 105.715 23.4545C106.089 22.85 106.276 22.1309 106.276 21.3012ZM114.951 18.5663C114.74 18.5287 114.527 18.51 114.314 18.5105C113.602 18.5105 113.051 18.7754 112.664 19.3093C112.326 19.7774 112.158 20.372 112.158 21.0881V25.814H110.135L110.155 19.6419C110.158 18.6962 110.132 17.7506 110.078 16.8064H111.84L111.915 18.5294H111.971C112.163 17.9663 112.515 17.4707 112.983 17.1022C113.406 16.7889 113.918 16.6195 114.444 16.6192C114.632 16.6192 114.801 16.6331 114.951 16.656V18.5663ZM123.998 20.8849C123.998 21.2435 123.974 21.5453 123.924 21.7923H117.855C117.88 22.6817 118.172 23.3629 118.736 23.833C119.248 24.2513 119.909 24.4625 120.72 24.4625C121.619 24.4625 122.44 24.32 123.176 24.0362L123.493 25.4256C122.632 25.7981 121.615 25.9833 120.441 25.9833C119.03 25.9833 117.92 25.572 117.114 24.7503C116.309 23.9296 115.905 22.8261 115.905 21.4417C115.905 20.0832 116.28 18.9517 117.031 18.0494C117.817 17.0863 118.878 16.6052 120.215 16.6052C121.526 16.6052 122.522 17.0863 123.195 18.0494C123.731 18.8143 124 19.7605 124 20.8839L123.998 20.8849ZM122.07 20.365C122.081 19.7714 121.95 19.2595 121.676 18.8272C121.327 18.2695 120.787 17.9926 120.063 17.9926C119.402 17.9926 118.864 18.2635 118.453 18.8083C118.116 19.2416 117.915 19.7595 117.854 20.365H122.07Z" fill="white"/>
</svg>
